{
	"asset":{
		"generator":"Khronos glTF Blender I/O v4.4.56",
		"version":"2.0"
	},
	"scene":0,
	"scenes":[
		{
			"name":"Scene",
			"nodes":[
				4,
				5
			]
		}
	],
	"nodes":[
		{
			"name":"gate_L",
			"rotation":[
				9.974800718737242e-08,
				-9.974800718737242e-08,
				0.7071067690849304,
				0.7071067690849304
			],
			"translation":[
				0.41999998688697815,
				0.3999999761581421,
				1.8899923404092078e-08
			]
		},
		{
			"name":"gate_R",
			"rotation":[
				1.5454309831852697e-08,
				1.5454309831852697e-08,
				-0.7071067690849304,
				0.7071067690849304
			],
			"translation":[
				-0.41999998688697815,
				0.3999999761581421,
				1.8899923404092078e-08
			]
		},
		{
			"name":"gate_CON",
			"translation":[
				0,
				0.27536821365356445,
				0
			]
		},
		{
			"children":[
				0,
				1,
				2
			],
			"name":"Root"
		},
		{
			"mesh":0,
			"name":"Cube.004",
			"skin":0
		},
		{
			"children":[
				3
			],
			"name":"Armature"
		}
	],
	"animations":[
		{
			"channels":[
				{
					"sampler":0,
					"target":{
						"node":3,
						"path":"translation"
					}
				},
				{
					"sampler":1,
					"target":{
						"node":3,
						"path":"rotation"
					}
				},
				{
					"sampler":2,
					"target":{
						"node":3,
						"path":"scale"
					}
				},
				{
					"sampler":3,
					"target":{
						"node":0,
						"path":"translation"
					}
				},
				{
					"sampler":4,
					"target":{
						"node":0,
						"path":"rotation"
					}
				},
				{
					"sampler":5,
					"target":{
						"node":0,
						"path":"scale"
					}
				},
				{
					"sampler":6,
					"target":{
						"node":1,
						"path":"translation"
					}
				},
				{
					"sampler":7,
					"target":{
						"node":1,
						"path":"rotation"
					}
				},
				{
					"sampler":8,
					"target":{
						"node":1,
						"path":"scale"
					}
				},
				{
					"sampler":9,
					"target":{
						"node":2,
						"path":"translation"
					}
				},
				{
					"sampler":10,
					"target":{
						"node":2,
						"path":"rotation"
					}
				},
				{
					"sampler":11,
					"target":{
						"node":2,
						"path":"scale"
					}
				}
			],
			"name":"Close",
			"samplers":[
				{
					"input":7,
					"interpolation":"STEP",
					"output":8
				},
				{
					"input":7,
					"interpolation":"STEP",
					"output":9
				},
				{
					"input":7,
					"interpolation":"STEP",
					"output":10
				},
				{
					"input":7,
					"interpolation":"STEP",
					"output":11
				},
				{
					"input":12,
					"interpolation":"LINEAR",
					"output":13
				},
				{
					"input":7,
					"interpolation":"STEP",
					"output":14
				},
				{
					"input":7,
					"interpolation":"STEP",
					"output":15
				},
				{
					"input":12,
					"interpolation":"LINEAR",
					"output":16
				},
				{
					"input":7,
					"interpolation":"STEP",
					"output":17
				},
				{
					"input":12,
					"interpolation":"LINEAR",
					"output":18
				},
				{
					"input":7,
					"interpolation":"STEP",
					"output":19
				},
				{
					"input":7,
					"interpolation":"STEP",
					"output":20
				}
			]
		},
		{
			"channels":[
				{
					"sampler":0,
					"target":{
						"node":3,
						"path":"translation"
					}
				},
				{
					"sampler":1,
					"target":{
						"node":3,
						"path":"rotation"
					}
				},
				{
					"sampler":2,
					"target":{
						"node":3,
						"path":"scale"
					}
				},
				{
					"sampler":3,
					"target":{
						"node":0,
						"path":"translation"
					}
				},
				{
					"sampler":4,
					"target":{
						"node":0,
						"path":"rotation"
					}
				},
				{
					"sampler":5,
					"target":{
						"node":0,
						"path":"scale"
					}
				},
				{
					"sampler":6,
					"target":{
						"node":1,
						"path":"translation"
					}
				},
				{
					"sampler":7,
					"target":{
						"node":1,
						"path":"rotation"
					}
				},
				{
					"sampler":8,
					"target":{
						"node":1,
						"path":"scale"
					}
				},
				{
					"sampler":9,
					"target":{
						"node":2,
						"path":"translation"
					}
				},
				{
					"sampler":10,
					"target":{
						"node":2,
						"path":"rotation"
					}
				},
				{
					"sampler":11,
					"target":{
						"node":2,
						"path":"scale"
					}
				}
			],
			"name":"Idle",
			"samplers":[
				{
					"input":21,
					"interpolation":"STEP",
					"output":22
				},
				{
					"input":21,
					"interpolation":"STEP",
					"output":23
				},
				{
					"input":21,
					"interpolation":"STEP",
					"output":24
				},
				{
					"input":21,
					"interpolation":"STEP",
					"output":25
				},
				{
					"input":21,
					"interpolation":"STEP",
					"output":26
				},
				{
					"input":21,
					"interpolation":"STEP",
					"output":27
				},
				{
					"input":21,
					"interpolation":"STEP",
					"output":28
				},
				{
					"input":21,
					"interpolation":"STEP",
					"output":29
				},
				{
					"input":21,
					"interpolation":"STEP",
					"output":30
				},
				{
					"input":21,
					"interpolation":"LINEAR",
					"output":31
				},
				{
					"input":21,
					"interpolation":"LINEAR",
					"output":32
				},
				{
					"input":21,
					"interpolation":"LINEAR",
					"output":33
				}
			]
		},
		{
			"channels":[
				{
					"sampler":0,
					"target":{
						"node":3,
						"path":"translation"
					}
				},
				{
					"sampler":1,
					"target":{
						"node":3,
						"path":"rotation"
					}
				},
				{
					"sampler":2,
					"target":{
						"node":3,
						"path":"scale"
					}
				},
				{
					"sampler":3,
					"target":{
						"node":0,
						"path":"translation"
					}
				},
				{
					"sampler":4,
					"target":{
						"node":0,
						"path":"rotation"
					}
				},
				{
					"sampler":5,
					"target":{
						"node":0,
						"path":"scale"
					}
				},
				{
					"sampler":6,
					"target":{
						"node":1,
						"path":"translation"
					}
				},
				{
					"sampler":7,
					"target":{
						"node":1,
						"path":"rotation"
					}
				},
				{
					"sampler":8,
					"target":{
						"node":1,
						"path":"scale"
					}
				},
				{
					"sampler":9,
					"target":{
						"node":2,
						"path":"translation"
					}
				},
				{
					"sampler":10,
					"target":{
						"node":2,
						"path":"rotation"
					}
				},
				{
					"sampler":11,
					"target":{
						"node":2,
						"path":"scale"
					}
				}
			],
			"name":"Open",
			"samplers":[
				{
					"input":34,
					"interpolation":"STEP",
					"output":35
				},
				{
					"input":34,
					"interpolation":"STEP",
					"output":36
				},
				{
					"input":34,
					"interpolation":"STEP",
					"output":37
				},
				{
					"input":34,
					"interpolation":"STEP",
					"output":38
				},
				{
					"input":39,
					"interpolation":"LINEAR",
					"output":40
				},
				{
					"input":34,
					"interpolation":"STEP",
					"output":41
				},
				{
					"input":34,
					"interpolation":"STEP",
					"output":42
				},
				{
					"input":39,
					"interpolation":"LINEAR",
					"output":43
				},
				{
					"input":34,
					"interpolation":"STEP",
					"output":44
				},
				{
					"input":39,
					"interpolation":"LINEAR",
					"output":45
				},
				{
					"input":34,
					"interpolation":"STEP",
					"output":46
				},
				{
					"input":34,
					"interpolation":"STEP",
					"output":47
				}
			]
		}
	],
	"materials":[
		{
			"doubleSided":true,
			"name":"Material",
			"pbrMetallicRoughness":{
				"baseColorTexture":{
					"index":0
				},
				"metallicFactor":0,
				"roughnessFactor":0.5
			}
		}
	],
	"meshes":[
		{
			"name":"Cube.005",
			"primitives":[
				{
					"attributes":{
						"POSITION":0,
						"NORMAL":1,
						"TEXCOORD_0":2,
						"JOINTS_0":3,
						"WEIGHTS_0":4
					},
					"indices":5,
					"material":0
				}
			]
		}
	],
	"textures":[
		{
			"sampler":0,
			"source":0
		}
	],
	"images":[
		{
			"mimeType":"image/png",
			"name":"tex",
			"uri":"tex.png"
		}
	],
	"skins":[
		{
			"inverseBindMatrices":6,
			"joints":[
				3,
				0,
				1,
				2
			],
			"name":"Armature"
		}
	],
	"accessors":[
		{
			"bufferView":0,
			"componentType":5126,
			"count":404,
			"max":[
				0.6006191372871399,
				0.870575487613678,
				1.0007165670394897
			],
			"min":[
				-0.6006191372871399,
				-0.017647970467805862,
				-1.0007165670394897
			],
			"type":"VEC3"
		},
		{
			"bufferView":1,
			"componentType":5126,
			"count":404,
			"type":"VEC3"
		},
		{
			"bufferView":2,
			"componentType":5126,
			"count":404,
			"type":"VEC2"
		},
		{
			"bufferView":3,
			"componentType":5121,
			"count":404,
			"type":"VEC4"
		},
		{
			"bufferView":4,
			"componentType":5126,
			"count":404,
			"type":"VEC4"
		},
		{
			"bufferView":5,
			"componentType":5123,
			"count":960,
			"type":"SCALAR"
		},
		{
			"bufferView":6,
			"componentType":5126,
			"count":4,
			"type":"MAT4"
		},
		{
			"bufferView":7,
			"componentType":5126,
			"count":2,
			"max":[
				1
			],
			"min":[
				0
			],
			"type":"SCALAR"
		},
		{
			"bufferView":8,
			"componentType":5126,
			"count":2,
			"type":"VEC3"
		},
		{
			"bufferView":9,
			"componentType":5126,
			"count":2,
			"type":"VEC4"
		},
		{
			"bufferView":10,
			"componentType":5126,
			"count":2,
			"type":"VEC3"
		},
		{
			"bufferView":11,
			"componentType":5126,
			"count":2,
			"type":"VEC3"
		},
		{
			"bufferView":12,
			"componentType":5126,
			"count":61,
			"max":[
				1
			],
			"min":[
				0
			],
			"type":"SCALAR"
		},
		{
			"bufferView":13,
			"componentType":5126,
			"count":61,
			"type":"VEC4"
		},
		{
			"bufferView":14,
			"componentType":5126,
			"count":2,
			"type":"VEC3"
		},
		{
			"bufferView":15,
			"componentType":5126,
			"count":2,
			"type":"VEC3"
		},
		{
			"bufferView":16,
			"componentType":5126,
			"count":61,
			"type":"VEC4"
		},
		{
			"bufferView":17,
			"componentType":5126,
			"count":2,
			"type":"VEC3"
		},
		{
			"bufferView":18,
			"componentType":5126,
			"count":61,
			"type":"VEC3"
		},
		{
			"bufferView":19,
			"componentType":5126,
			"count":2,
			"type":"VEC4"
		},
		{
			"bufferView":20,
			"componentType":5126,
			"count":2,
			"type":"VEC3"
		},
		{
			"bufferView":21,
			"componentType":5126,
			"count":1,
			"max":[
				0
			],
			"min":[
				0
			],
			"type":"SCALAR"
		},
		{
			"bufferView":22,
			"componentType":5126,
			"count":1,
			"type":"VEC3"
		},
		{
			"bufferView":23,
			"componentType":5126,
			"count":1,
			"type":"VEC4"
		},
		{
			"bufferView":24,
			"componentType":5126,
			"count":1,
			"type":"VEC3"
		},
		{
			"bufferView":25,
			"componentType":5126,
			"count":1,
			"type":"VEC3"
		},
		{
			"bufferView":26,
			"componentType":5126,
			"count":1,
			"type":"VEC4"
		},
		{
			"bufferView":27,
			"componentType":5126,
			"count":1,
			"type":"VEC3"
		},
		{
			"bufferView":28,
			"componentType":5126,
			"count":1,
			"type":"VEC3"
		},
		{
			"bufferView":29,
			"componentType":5126,
			"count":1,
			"type":"VEC4"
		},
		{
			"bufferView":30,
			"componentType":5126,
			"count":1,
			"type":"VEC3"
		},
		{
			"bufferView":31,
			"componentType":5126,
			"count":1,
			"type":"VEC3"
		},
		{
			"bufferView":32,
			"componentType":5126,
			"count":1,
			"type":"VEC4"
		},
		{
			"bufferView":33,
			"componentType":5126,
			"count":1,
			"type":"VEC3"
		},
		{
			"bufferView":34,
			"componentType":5126,
			"count":2,
			"max":[
				1
			],
			"min":[
				0.016666666666666666
			],
			"type":"SCALAR"
		},
		{
			"bufferView":35,
			"componentType":5126,
			"count":2,
			"type":"VEC3"
		},
		{
			"bufferView":36,
			"componentType":5126,
			"count":2,
			"type":"VEC4"
		},
		{
			"bufferView":37,
			"componentType":5126,
			"count":2,
			"type":"VEC3"
		},
		{
			"bufferView":38,
			"componentType":5126,
			"count":2,
			"type":"VEC3"
		},
		{
			"bufferView":39,
			"componentType":5126,
			"count":60,
			"max":[
				1
			],
			"min":[
				0.016666666666666666
			],
			"type":"SCALAR"
		},
		{
			"bufferView":40,
			"componentType":5126,
			"count":60,
			"type":"VEC4"
		},
		{
			"bufferView":41,
			"componentType":5126,
			"count":2,
			"type":"VEC3"
		},
		{
			"bufferView":42,
			"componentType":5126,
			"count":2,
			"type":"VEC3"
		},
		{
			"bufferView":43,
			"componentType":5126,
			"count":60,
			"type":"VEC4"
		},
		{
			"bufferView":44,
			"componentType":5126,
			"count":2,
			"type":"VEC3"
		},
		{
			"bufferView":45,
			"componentType":5126,
			"count":60,
			"type":"VEC3"
		},
		{
			"bufferView":46,
			"componentType":5126,
			"count":2,
			"type":"VEC4"
		},
		{
			"bufferView":47,
			"componentType":5126,
			"count":2,
			"type":"VEC3"
		}
	],
	"bufferViews":[
		{
			"buffer":0,
			"byteLength":4848,
			"byteOffset":0,
			"target":34962
		},
		{
			"buffer":0,
			"byteLength":4848,
			"byteOffset":4848,
			"target":34962
		},
		{
			"buffer":0,
			"byteLength":3232,
			"byteOffset":9696,
			"target":34962
		},
		{
			"buffer":0,
			"byteLength":1616,
			"byteOffset":12928,
			"target":34962
		},
		{
			"buffer":0,
			"byteLength":6464,
			"byteOffset":14544,
			"target":34962
		},
		{
			"buffer":0,
			"byteLength":1920,
			"byteOffset":21008,
			"target":34963
		},
		{
			"buffer":0,
			"byteLength":256,
			"byteOffset":22928
		},
		{
			"buffer":0,
			"byteLength":8,
			"byteOffset":23184
		},
		{
			"buffer":0,
			"byteLength":24,
			"byteOffset":23192
		},
		{
			"buffer":0,
			"byteLength":32,
			"byteOffset":23216
		},
		{
			"buffer":0,
			"byteLength":24,
			"byteOffset":23248
		},
		{
			"buffer":0,
			"byteLength":24,
			"byteOffset":23272
		},
		{
			"buffer":0,
			"byteLength":244,
			"byteOffset":23296
		},
		{
			"buffer":0,
			"byteLength":976,
			"byteOffset":23540
		},
		{
			"buffer":0,
			"byteLength":24,
			"byteOffset":24516
		},
		{
			"buffer":0,
			"byteLength":24,
			"byteOffset":24540
		},
		{
			"buffer":0,
			"byteLength":976,
			"byteOffset":24564
		},
		{
			"buffer":0,
			"byteLength":24,
			"byteOffset":25540
		},
		{
			"buffer":0,
			"byteLength":732,
			"byteOffset":25564
		},
		{
			"buffer":0,
			"byteLength":32,
			"byteOffset":26296
		},
		{
			"buffer":0,
			"byteLength":24,
			"byteOffset":26328
		},
		{
			"buffer":0,
			"byteLength":4,
			"byteOffset":26352
		},
		{
			"buffer":0,
			"byteLength":12,
			"byteOffset":26356
		},
		{
			"buffer":0,
			"byteLength":16,
			"byteOffset":26368
		},
		{
			"buffer":0,
			"byteLength":12,
			"byteOffset":26384
		},
		{
			"buffer":0,
			"byteLength":12,
			"byteOffset":26396
		},
		{
			"buffer":0,
			"byteLength":16,
			"byteOffset":26408
		},
		{
			"buffer":0,
			"byteLength":12,
			"byteOffset":26424
		},
		{
			"buffer":0,
			"byteLength":12,
			"byteOffset":26436
		},
		{
			"buffer":0,
			"byteLength":16,
			"byteOffset":26448
		},
		{
			"buffer":0,
			"byteLength":12,
			"byteOffset":26464
		},
		{
			"buffer":0,
			"byteLength":12,
			"byteOffset":26476
		},
		{
			"buffer":0,
			"byteLength":16,
			"byteOffset":26488
		},
		{
			"buffer":0,
			"byteLength":12,
			"byteOffset":26504
		},
		{
			"buffer":0,
			"byteLength":8,
			"byteOffset":26516
		},
		{
			"buffer":0,
			"byteLength":24,
			"byteOffset":26524
		},
		{
			"buffer":0,
			"byteLength":32,
			"byteOffset":26548
		},
		{
			"buffer":0,
			"byteLength":24,
			"byteOffset":26580
		},
		{
			"buffer":0,
			"byteLength":24,
			"byteOffset":26604
		},
		{
			"buffer":0,
			"byteLength":240,
			"byteOffset":26628
		},
		{
			"buffer":0,
			"byteLength":960,
			"byteOffset":26868
		},
		{
			"buffer":0,
			"byteLength":24,
			"byteOffset":27828
		},
		{
			"buffer":0,
			"byteLength":24,
			"byteOffset":27852
		},
		{
			"buffer":0,
			"byteLength":960,
			"byteOffset":27876
		},
		{
			"buffer":0,
			"byteLength":24,
			"byteOffset":28836
		},
		{
			"buffer":0,
			"byteLength":720,
			"byteOffset":28860
		},
		{
			"buffer":0,
			"byteLength":32,
			"byteOffset":29580
		},
		{
			"buffer":0,
			"byteLength":24,
			"byteOffset":29612
		}
	],
	"samplers":[
		{
			"magFilter":9729,
			"minFilter":9987
		}
	],
	"buffers":[
		{
			"byteLength":29636,
			"uri":"gate.bin"
		}
	]
}
