{
	"asset":{
		"generator":"Khronos glTF Blender I/O v4.4.56",
		"version":"2.0"
	},
	"scene":0,
	"scenes":[
		{
			"name":"Scene",
			"nodes":[
				3,
				4
			]
		}
	],
	"nodes":[
		{
			"name":"Bone.002",
			"rotation":[
				-0.4999997615814209,
				0.5,
				0.5000003576278687,
				0.4999999403953552
			],
			"scale":[
				1,
				0.9999999403953552,
				1
			],
			"translation":[
				4.199993556609251e-14,
				0.09999998658895493,
				6.332385282803443e-08
			]
		},
		{
			"name":"Bone.004",
			"rotation":[
				-0.4999997615814209,
				0.5,
				0.5000003576278687,
				0.4999999403953552
			],
			"scale":[
				1,
				0.9999999403953552,
				1
			],
			"translation":[
				1.5822987451535875e-13,
				0.3999999761581421,
				2.085919561523042e-07
			]
		},
		{
			"children":[
				0,
				1
			],
			"name":"Bone",
			"rotation":[
				-2.8405338525772095e-07,
				-3.587176138353243e-07,
				8.68351546809247e-14,
				1
			],
			"translation":[
				0,
				0,
				-0.0023898270446807146
			]
		},
		{
			"children":[
				2
			],
			"name":"Armature"
		},
		{
			"mesh":0,
			"name":"Coffin",
			"skin":0
		}
	],
	"animations":[
		{
			"channels":[
				{
					"sampler":0,
					"target":{
						"node":2,
						"path":"translation"
					}
				},
				{
					"sampler":1,
					"target":{
						"node":2,
						"path":"rotation"
					}
				},
				{
					"sampler":2,
					"target":{
						"node":2,
						"path":"scale"
					}
				},
				{
					"sampler":3,
					"target":{
						"node":0,
						"path":"translation"
					}
				},
				{
					"sampler":4,
					"target":{
						"node":0,
						"path":"rotation"
					}
				},
				{
					"sampler":5,
					"target":{
						"node":0,
						"path":"scale"
					}
				},
				{
					"sampler":6,
					"target":{
						"node":1,
						"path":"translation"
					}
				},
				{
					"sampler":7,
					"target":{
						"node":1,
						"path":"rotation"
					}
				},
				{
					"sampler":8,
					"target":{
						"node":1,
						"path":"scale"
					}
				},
				{
					"sampler":9,
					"target":{
						"node":3,
						"path":"translation"
					}
				},
				{
					"sampler":10,
					"target":{
						"node":3,
						"path":"rotation"
					}
				},
				{
					"sampler":11,
					"target":{
						"node":3,
						"path":"scale"
					}
				}
			],
			"name":"Armature|Armature|ArmatureAction",
			"samplers":[
				{
					"input":7,
					"interpolation":"STEP",
					"output":8
				},
				{
					"input":7,
					"interpolation":"STEP",
					"output":9
				},
				{
					"input":7,
					"interpolation":"STEP",
					"output":10
				},
				{
					"input":7,
					"interpolation":"STEP",
					"output":11
				},
				{
					"input":7,
					"interpolation":"STEP",
					"output":12
				},
				{
					"input":7,
					"interpolation":"STEP",
					"output":13
				},
				{
					"input":14,
					"interpolation":"LINEAR",
					"output":15
				},
				{
					"input":7,
					"interpolation":"STEP",
					"output":16
				},
				{
					"input":7,
					"interpolation":"STEP",
					"output":17
				},
				{
					"input":7,
					"interpolation":"STEP",
					"output":18
				},
				{
					"input":7,
					"interpolation":"STEP",
					"output":19
				},
				{
					"input":7,
					"interpolation":"STEP",
					"output":20
				}
			]
		},
		{
			"channels":[
				{
					"sampler":0,
					"target":{
						"node":2,
						"path":"translation"
					}
				},
				{
					"sampler":1,
					"target":{
						"node":2,
						"path":"rotation"
					}
				},
				{
					"sampler":2,
					"target":{
						"node":2,
						"path":"scale"
					}
				},
				{
					"sampler":3,
					"target":{
						"node":0,
						"path":"translation"
					}
				},
				{
					"sampler":4,
					"target":{
						"node":0,
						"path":"rotation"
					}
				},
				{
					"sampler":5,
					"target":{
						"node":0,
						"path":"scale"
					}
				},
				{
					"sampler":6,
					"target":{
						"node":1,
						"path":"translation"
					}
				},
				{
					"sampler":7,
					"target":{
						"node":1,
						"path":"rotation"
					}
				},
				{
					"sampler":8,
					"target":{
						"node":1,
						"path":"scale"
					}
				},
				{
					"sampler":9,
					"target":{
						"node":3,
						"path":"rotation"
					}
				},
				{
					"sampler":10,
					"target":{
						"node":3,
						"path":"translation"
					}
				},
				{
					"sampler":11,
					"target":{
						"node":3,
						"path":"scale"
					}
				}
			],
			"name":"Armature|Armature|CylinderAction",
			"samplers":[
				{
					"input":21,
					"interpolation":"LINEAR",
					"output":22
				},
				{
					"input":21,
					"interpolation":"LINEAR",
					"output":23
				},
				{
					"input":21,
					"interpolation":"LINEAR",
					"output":24
				},
				{
					"input":21,
					"interpolation":"LINEAR",
					"output":25
				},
				{
					"input":21,
					"interpolation":"LINEAR",
					"output":26
				},
				{
					"input":21,
					"interpolation":"LINEAR",
					"output":27
				},
				{
					"input":21,
					"interpolation":"LINEAR",
					"output":28
				},
				{
					"input":21,
					"interpolation":"LINEAR",
					"output":29
				},
				{
					"input":21,
					"interpolation":"LINEAR",
					"output":30
				},
				{
					"input":21,
					"interpolation":"LINEAR",
					"output":31
				},
				{
					"input":21,
					"interpolation":"LINEAR",
					"output":32
				},
				{
					"input":21,
					"interpolation":"LINEAR",
					"output":33
				}
			]
		}
	],
	"materials":[
		{
			"doubleSided":true,
			"name":"CoffinMaterial",
			"pbrMetallicRoughness":{
				"baseColorTexture":{
					"index":0
				},
				"metallicFactor":0,
				"roughnessFactor":0.5
			}
		}
	],
	"meshes":[
		{
			"name":"Cube.002",
			"primitives":[
				{
					"attributes":{
						"POSITION":0,
						"NORMAL":1,
						"TEXCOORD_0":2,
						"JOINTS_0":3,
						"WEIGHTS_0":4
					},
					"indices":5,
					"material":0
				}
			]
		}
	],
	"textures":[
		{
			"sampler":0,
			"source":0
		}
	],
	"images":[
		{
			"mimeType":"image/png",
			"name":"tex.002",
			"uri":"tex.001.png"
		}
	],
	"skins":[
		{
			"inverseBindMatrices":6,
			"joints":[
				2,
				0,
				1
			],
			"name":"Armature"
		}
	],
	"accessors":[
		{
			"bufferView":0,
			"componentType":5126,
			"count":710,
			"max":[
				0.33793455362319946,
				0.594913899898529,
				1.1073963642120361
			],
			"min":[
				-0.33793455362319946,
				0.0034133128356188536,
				-1.0589735507965088
			],
			"type":"VEC3"
		},
		{
			"bufferView":1,
			"componentType":5126,
			"count":710,
			"type":"VEC3"
		},
		{
			"bufferView":2,
			"componentType":5126,
			"count":710,
			"type":"VEC2"
		},
		{
			"bufferView":3,
			"componentType":5121,
			"count":710,
			"type":"VEC4"
		},
		{
			"bufferView":4,
			"componentType":5126,
			"count":710,
			"type":"VEC4"
		},
		{
			"bufferView":5,
			"componentType":5123,
			"count":3180,
			"type":"SCALAR"
		},
		{
			"bufferView":6,
			"componentType":5126,
			"count":3,
			"type":"MAT4"
		},
		{
			"bufferView":7,
			"componentType":5126,
			"count":2,
			"max":[
				2.5
			],
			"min":[
				0.041666666666666664
			],
			"type":"SCALAR"
		},
		{
			"bufferView":8,
			"componentType":5126,
			"count":2,
			"type":"VEC3"
		},
		{
			"bufferView":9,
			"componentType":5126,
			"count":2,
			"type":"VEC4"
		},
		{
			"bufferView":10,
			"componentType":5126,
			"count":2,
			"type":"VEC3"
		},
		{
			"bufferView":11,
			"componentType":5126,
			"count":2,
			"type":"VEC3"
		},
		{
			"bufferView":12,
			"componentType":5126,
			"count":2,
			"type":"VEC4"
		},
		{
			"bufferView":13,
			"componentType":5126,
			"count":2,
			"type":"VEC3"
		},
		{
			"bufferView":14,
			"componentType":5126,
			"count":60,
			"max":[
				2.5
			],
			"min":[
				0.041666666666666664
			],
			"type":"SCALAR"
		},
		{
			"bufferView":15,
			"componentType":5126,
			"count":60,
			"type":"VEC3"
		},
		{
			"bufferView":16,
			"componentType":5126,
			"count":2,
			"type":"VEC4"
		},
		{
			"bufferView":17,
			"componentType":5126,
			"count":2,
			"type":"VEC3"
		},
		{
			"bufferView":18,
			"componentType":5126,
			"count":2,
			"type":"VEC3"
		},
		{
			"bufferView":19,
			"componentType":5126,
			"count":2,
			"type":"VEC4"
		},
		{
			"bufferView":20,
			"componentType":5126,
			"count":2,
			"type":"VEC3"
		},
		{
			"bufferView":21,
			"componentType":5126,
			"count":1,
			"max":[
				0.041666666666666664
			],
			"min":[
				0.041666666666666664
			],
			"type":"SCALAR"
		},
		{
			"bufferView":22,
			"componentType":5126,
			"count":1,
			"type":"VEC3"
		},
		{
			"bufferView":23,
			"componentType":5126,
			"count":1,
			"type":"VEC4"
		},
		{
			"bufferView":24,
			"componentType":5126,
			"count":1,
			"type":"VEC3"
		},
		{
			"bufferView":25,
			"componentType":5126,
			"count":1,
			"type":"VEC3"
		},
		{
			"bufferView":26,
			"componentType":5126,
			"count":1,
			"type":"VEC4"
		},
		{
			"bufferView":27,
			"componentType":5126,
			"count":1,
			"type":"VEC3"
		},
		{
			"bufferView":28,
			"componentType":5126,
			"count":1,
			"type":"VEC3"
		},
		{
			"bufferView":29,
			"componentType":5126,
			"count":1,
			"type":"VEC4"
		},
		{
			"bufferView":30,
			"componentType":5126,
			"count":1,
			"type":"VEC3"
		},
		{
			"bufferView":31,
			"componentType":5126,
			"count":1,
			"type":"VEC4"
		},
		{
			"bufferView":32,
			"componentType":5126,
			"count":1,
			"type":"VEC3"
		},
		{
			"bufferView":33,
			"componentType":5126,
			"count":1,
			"type":"VEC3"
		}
	],
	"bufferViews":[
		{
			"buffer":0,
			"byteLength":8520,
			"byteOffset":0,
			"target":34962
		},
		{
			"buffer":0,
			"byteLength":8520,
			"byteOffset":8520,
			"target":34962
		},
		{
			"buffer":0,
			"byteLength":5680,
			"byteOffset":17040,
			"target":34962
		},
		{
			"buffer":0,
			"byteLength":2840,
			"byteOffset":22720,
			"target":34962
		},
		{
			"buffer":0,
			"byteLength":11360,
			"byteOffset":25560,
			"target":34962
		},
		{
			"buffer":0,
			"byteLength":6360,
			"byteOffset":36920,
			"target":34963
		},
		{
			"buffer":0,
			"byteLength":192,
			"byteOffset":43280
		},
		{
			"buffer":0,
			"byteLength":8,
			"byteOffset":43472
		},
		{
			"buffer":0,
			"byteLength":24,
			"byteOffset":43480
		},
		{
			"buffer":0,
			"byteLength":32,
			"byteOffset":43504
		},
		{
			"buffer":0,
			"byteLength":24,
			"byteOffset":43536
		},
		{
			"buffer":0,
			"byteLength":24,
			"byteOffset":43560
		},
		{
			"buffer":0,
			"byteLength":32,
			"byteOffset":43584
		},
		{
			"buffer":0,
			"byteLength":24,
			"byteOffset":43616
		},
		{
			"buffer":0,
			"byteLength":240,
			"byteOffset":43640
		},
		{
			"buffer":0,
			"byteLength":720,
			"byteOffset":43880
		},
		{
			"buffer":0,
			"byteLength":32,
			"byteOffset":44600
		},
		{
			"buffer":0,
			"byteLength":24,
			"byteOffset":44632
		},
		{
			"buffer":0,
			"byteLength":24,
			"byteOffset":44656
		},
		{
			"buffer":0,
			"byteLength":32,
			"byteOffset":44680
		},
		{
			"buffer":0,
			"byteLength":24,
			"byteOffset":44712
		},
		{
			"buffer":0,
			"byteLength":4,
			"byteOffset":44736
		},
		{
			"buffer":0,
			"byteLength":12,
			"byteOffset":44740
		},
		{
			"buffer":0,
			"byteLength":16,
			"byteOffset":44752
		},
		{
			"buffer":0,
			"byteLength":12,
			"byteOffset":44768
		},
		{
			"buffer":0,
			"byteLength":12,
			"byteOffset":44780
		},
		{
			"buffer":0,
			"byteLength":16,
			"byteOffset":44792
		},
		{
			"buffer":0,
			"byteLength":12,
			"byteOffset":44808
		},
		{
			"buffer":0,
			"byteLength":12,
			"byteOffset":44820
		},
		{
			"buffer":0,
			"byteLength":16,
			"byteOffset":44832
		},
		{
			"buffer":0,
			"byteLength":12,
			"byteOffset":44848
		},
		{
			"buffer":0,
			"byteLength":16,
			"byteOffset":44860
		},
		{
			"buffer":0,
			"byteLength":12,
			"byteOffset":44876
		},
		{
			"buffer":0,
			"byteLength":12,
			"byteOffset":44888
		}
	],
	"samplers":[
		{
			"magFilter":9729,
			"minFilter":9987
		}
	],
	"buffers":[
		{
			"byteLength":44900,
			"uri":"coffin.bin"
		}
	]
}
